{
  "accessors": [
    {
      "bufferView": 1,
      "componentType": 5126,
      "count": 546,
      "max": [
        36.800479888916016,
        7.629569053649902,
        3.856182098388672
      ],
      "min": [
        -36.80022430419922,
        -80.23436737060547,
        -69.70782470703125
      ],
      "type": "VEC3"
    },
    {
      "bufferView": 1,
      "byteOffset": 6552,
      "componentType": 5126,
      "count": 546,
      "max": [
        0.9923169016838074,
        0.9832795262336731,
        0.9958063364028931
      ],
      "min": [
        -0.9923246502876282,
        -0.9023820161819458,
        -0.9996072053909302
      ],
      "type": "VEC3"
    },
    {
      "bufferView": 0,
      "componentType": 5125,
      "count": 546,
      "type": "SCALAR"
    },
    {
      "bufferView": 1,
      "byteOffset": 13104,
      "componentType": 5126,
      "count": 546,
      "max": [
        34.793575286865234,
        5.602421283721924,
        2.0935769081115723
      ],
      "min": [
        -35.28017044067383,
        -78.20721435546875,
        -67.98572540283203
      ],
      "type": "VEC3"
    },
    {
      "bufferView": 1,
      "byteOffset": 19656,
      "componentType": 5126,
      "count": 546,
      "max": [
        0.9978227019309998,
        0.9832794666290283,
        0.9939500093460083
      ],
      "min": [
        -0.9940259456634521,
        -0.902381956577301,
        -0.9977446794509888
      ],
      "type": "VEC3"
    },
    {
      "bufferView": 0,
      "byteOffset": 2184,
      "componentType": 5125,
      "count": 546,
      "type": "SCALAR"
    },
    {
      "bufferView": 2,
      "componentType": 5126,
      "count": 101,
      "max": [
        3.3333332538604736
      ],
      "min": [
        0.0
      ],
      "type": "SCALAR"
    },
    {
      "bufferView": 3,
      "componentType": 5126,
      "count": 101,
      "max": [
        3.2074691347361295e-08,
        1.0,
        6.657902673623539e-08,
        1.0
      ],
      "min": [
        -6.657902673623539e-08,
        -0.8443279266357422,
        -5.6214531696241465e-08,
        -0.4817536771297455
      ],
      "type": "VEC4"
    }
  ],
  "animations": [
    {
      "channels": [
        {
          "sampler": 0,
          "target": {
            "node": 4,
            "path": "rotation"
          }
        }
      ],
      "name": "Take 001",
      "samplers": [
        {
          "input": 6,
          "interpolation": "LINEAR",
          "output": 7
        }
      ]
    }
  ],
  "asset": {
    "extras": {
      "author": "wladimy (https://sketchfab.com/wladimy)",
      "license": "SKETCHFAB Standard (https://sketchfab.com/licenses)",
      "source": "https://sketchfab.com/3d-models/diamond-3b100769ffdf4e07808808b8c002921a",
      "title": "Diamond"
    },
    "generator": "Sketchfab-12.65.0",
    "version": "2.0"
  },
  "bufferViews": [
    {
      "buffer": 0,
      "byteLength": 4368,
      "name": "floatBufferViews",
      "target": 34963
    },
    {
      "buffer": 0,
      "byteLength": 26208,
      "byteOffset": 4368,
      "byteStride": 12,
      "name": "floatBufferViews",
      "target": 34962
    },
    {
      "buffer": 0,
      "byteLength": 404,
      "byteOffset": 30576,
      "name": "floatBufferViews"
    },
    {
      "buffer": 0,
      "byteLength": 1616,
      "byteOffset": 30980,
      "byteStride": 16,
      "name": "floatBufferViews"
    }
  ],
  "buffers": [
    {
      "byteLength": 32596,
      "uri": "scene.bin"
    }
  ],
  "materials": [
    {
      "alphaMode": "BLEND",
      "doubleSided": true,
      "name": "02_-_Default",
      "pbrMetallicRoughness": {
        "baseColorFactor": [
          1.0,
          1.0,
          1.0,
          0.520007622
        ],
        "roughnessFactor": 0.0
      }
    },
    {
      "alphaMode": "BLEND",
      "doubleSided": true,
      "name": "idaheart_default",
      "pbrMetallicRoughness": {
        "baseColorFactor": [
          1.0,
          1.0,
          1.0,
          0.0626905488
        ],
        "roughnessFactor": 0.0
      }
    }
  ],
  "meshes": [
    {
      "name": "Line004_02 - Default_0",
      "primitives": [
        {
          "attributes": {
            "NORMAL": 1,
            "POSITION": 0
          },
          "indices": 2,
          "material": 0,
          "mode": 4
        }
      ]
    },
    {
      "name": "Line004_idaheart_default_0",
      "primitives": [
        {
          "attributes": {
            "NORMAL": 4,
            "POSITION": 3
          },
          "indices": 5,
          "material": 1,
          "mode": 4
        }
      ]
    }
  ],
  "nodes": [
    {
      "children": [
        1
      ],
      "matrix": [
        1.0,
        0.0,
        0.0,
        0.0,
        0.0,
        2.220446049250313e-16,
        -1.0,
        0.0,
        0.0,
        1.0,
        2.220446049250313e-16,
        0.0,
        0.0,
        0.0,
        0.0,
        1.0
      ],
      "name": "Sketchfab_model"
    },
    {
      "children": [
        2
      ],
      "matrix": [
        1.0,
        0.0,
        0.0,
        0.0,
        0.0,
        0.0,
        1.0,
        0.0,
        0.0,
        -1.0,
        0.0,
        0.0,
        0.0,
        0.0,
        0.0,
        1.0
      ],
      "name": "bba066b12cf346d694f2533c4ae84911.fbx"
    },
    {
      "children": [
        3
      ],
      "name": "Object_2"
    },
    {
      "children": [
        4
      ],
      "name": "RootNode"
    },
    {
      "children": [
        5
      ],
      "name": "Line004",
      "rotation": [
        8.146034247147327e-08,
        6.123234262925839e-17,
        -4.988007341188171e-24,
        1.0
      ],
      "scale": [
        -0.264779657125473,
        -0.264779657125473,
        -0.264779657125473
      ],
      "translation": [
        3.37927631335333e-05,
        11.707108497619629,
        -0.31635475158691406
      ]
    },
    {
      "children": [
        6,
        7
      ],
      "matrix": [
        1.0,
        0.0,
        -0.0,
        0.0,
        0.0,
        1.0,
        0.0,
        0.0,
        0.0,
        0.0,
        1.0,
        0.0,
        -0.0001277923583984375,
        36.302398681640625,
        32.925819396972656,
        1.0
      ],
      "name": "Object_5"
    },
    {
      "mesh": 0,
      "name": "Line004_02 - Default_0"
    },
    {
      "mesh": 1,
      "name": "Line004_idaheart_default_0"
    }
  ],
  "scene": 0,
  "scenes": [
    {
      "name": "Sketchfab_Scene",
      "nodes": [
        0
      ]
    }
  ]
}
